<svg id="Layer_1" data-name="Layer 1" xmlns="http://www.w3.org/2000/svg" viewBox="0 0 460.09 436.54"><defs><style>.cls-1{fill:#fdfefe;}.cls-2{fill:#0180c7;}.cls-3{fill:#0172b1;}.cls-4{fill:none;stroke:#0180c7;stroke-miterlimit:10;stroke-width:2px;}</style></defs><title>logo-zalo-vector</title><path class="cls-1" d="M82.59,380.9c-1.77-.75-3.11-1.7-1-3.46a45,45,0,0,1,4.13-2.79c13.06-8.48,25.35-17.82,33.45-31.49,6.77-11.43,5.69-18.1-2.75-26.54C69.1,269.19,48.22,212.46,58.64,145.51,64.53,107.68,81.86,75,107,46.63c15.18-17.15,33.28-31.07,53.09-42.69,1.17-.69,2.94-.86,3.16-2.64-.39-1-1.16-.68-1.75-.68C127.83.61,94.15,0,60.5.83,28.39,1.65.52,26.56.59,62.31c.21,104.33,0,208.65,0,313,0,32.35,24.69,59.48,57,60.73,27.28,1.06,54.64.17,82,.14,2,.06,4,.18,6,.18H290c36,0,72,.14,108-.05a60.44,60.44,0,0,0,60.47-60.89q0-29.25,0-58.5c0-1.42.48-2.94-.41-4.36-1.76.14-2.46,1.62-3.45,2.6a220.41,220.41,0,0,1-67.36,46.2c-61.51,27.08-124.14,29-187.56,7.2a29.12,29.12,0,0,0-17.17-.75c-8.38,2.15-16.69,4.61-25,7.15C133,382.47,108.13,385.92,82.59,380.9Zm72.47-168.49c1.66-2.18,2.64-3.5,3.65-4.79Q178.36,182.7,198,157.77c3.81-4.85,7.62-9.73,10-15.48,2.75-6.6-.23-12.83-7-15.16a28.58,28.58,0,0,0-9.38-1.15q-26.75-.09-53.49,0a28,28,0,0,0-7.4.91,10.51,10.51,0,0,0,.18,20.43,30.41,30.41,0,0,0,7.41.84c10.83.09,21.66,0,32.49.08,1.17,0,2.66-.76,3.61.95-.89,1.17-1.78,2.36-2.7,3.52q-23.18,29.46-46.37,58.91c-3.84,4.88-5.77,10.26-3,16.26s8.45,7.13,14.25,7.47c4.65.27,9.33.11,14,.11,16.16,0,32.33.11,48.49-.07,8.57-.1,13.18-5.34,12.26-13.25-.73-6.25-5-9.62-13-9.69C184.32,212.32,170.19,212.41,155.06,212.41Zm116-52.64c-12.48-10.89-26.27-11.56-39.83-3.59-16.34,9.61-22.42,25.28-20.34,43.54,1.93,17,9.27,30.88,27.08,36.65,11.1,3.6,21.37,2.31,30.48-5.07,2.35-1.91,3.07-1.54,4.76.59a12.25,12.25,0,0,0,14,3.87,11.8,11.8,0,0,0,8.32-11.32c.12-20,.22-40,0-60-.1-8-7.55-13.09-15.41-11.49C275.92,153.82,273.5,156.71,271.06,159.77Zm69.3,37.12c-.37,25,20.33,43.89,46.3,41.29,23.91-2.4,39.41-20.32,38.64-45.6-.76-25-19.44-42.08-44.9-41.29C356.45,152,339.6,171.21,340.37,196.89ZM331.61,177c0-15.66.07-31.32,0-47,0-8-5.14-13-12.74-12.89-7.36.07-12.25,5.06-12.38,12.75-.08,4.66,0,9.33,0,14q0,39.73,0,79.46c0,6.24,3.78,11.6,8.83,12.87a12.91,12.91,0,0,0,16.29-12.73C331.69,208,331.61,192.5,331.61,177Z"/><path class="cls-2" d="M139.54,436.16c-27.33,0-54.69.93-82-.14-32.31-1.26-57-28.38-57-60.73,0-104.33.23-208.65,0-313C.52,26.56,28.39,1.65,60.5.83,94.15,0,127.83.61,161.49.62c.59,0,1.36-.29,1.75.68-.21,1.78-2,2-3.16,2.64C140.28,15.56,122.17,29.48,107,46.63,81.86,75,64.53,107.68,58.64,145.51c-10.42,66.95,10.46,123.68,57.83,171.1,8.43,8.44,9.52,15.11,2.75,26.54-8.1,13.68-20.4,23-33.45,31.49a45,45,0,0,0-4.13,2.79c-2.14,1.76-.8,2.71,1,3.46a9.8,9.8,0,0,0,1.49,2.49c11.48,10.22,22.37,21.08,33.67,31.47q8,7.39,15.72,15.11C135.5,432,139,432.65,139.54,436.16Z"/><path class="cls-3" d="M139.54,436.16c-.52-3.51-4-4.14-6.07-6.18q-7.68-7.73-15.72-15.11c-11.3-10.4-22.19-21.26-33.67-31.47a9.8,9.8,0,0,1-1.49-2.49c25.54,5,50.39,1.57,74.94-5.95,8.28-2.53,16.59-5,25-7.15a29.12,29.12,0,0,1,17.17.75c63.42,21.85,126,19.88,187.56-7.2a220.41,220.41,0,0,0,67.36-46.2c1-1,1.69-2.46,3.45-2.6.9,1.42.41,2.94.41,4.36q.06,29.25,0,58.5A60.44,60.44,0,0,1,398,436.3c-36,.2-72,.05-108,.05H145.53C143.53,436.34,141.54,436.22,139.54,436.16Z"/><path class="cls-2" d="M155.06,212.41c15.13,0,29.25-.09,43.38,0,7.93.07,12.22,3.44,13,9.69.92,7.91-3.69,13.16-12.26,13.25-16.16.18-32.33.07-48.49.07-4.67,0-9.34.16-14-.11-5.8-.33-11.47-1.48-14.25-7.47s-.85-11.38,3-16.26q23.17-29.47,46.37-58.91c.92-1.17,1.8-2.36,2.7-3.52-.94-1.71-2.44-.94-3.61-.95-10.83-.07-21.66,0-32.49-.08a30.41,30.41,0,0,1-7.41-.84,10.51,10.51,0,0,1-.18-20.43,28,28,0,0,1,7.4-.91q26.75-.11,53.49,0a28.58,28.58,0,0,1,9.38,1.15c6.76,2.33,9.74,8.57,7,15.16-2.39,5.75-6.21,10.63-10,15.48q-19.61,25-39.29,49.85C157.7,208.91,156.72,210.23,155.06,212.41Z"/><path class="cls-2" d="M271.06,159.77c2.43-3.07,4.85-6,9-6.79,7.86-1.6,15.31,3.5,15.41,11.49.26,20,.17,40,0,60a11.8,11.8,0,0,1-8.32,11.32,12.25,12.25,0,0,1-14-3.87c-1.69-2.13-2.41-2.49-4.76-.59-9.11,7.38-19.38,8.67-30.48,5.07-17.81-5.78-25.14-19.66-27.08-36.65-2.08-18.26,4-33.93,20.34-43.54C244.8,148.21,258.58,148.88,271.06,159.77Zm-35.35,36.56a21.86,21.86,0,0,0,4.21,12.08,16.4,16.4,0,0,0,26.22,0c5.61-7.56,5.58-20.1,0-27.66a15.2,15.2,0,0,0-11.87-6.37C243.28,173.72,235.6,182.2,235.71,196.33Z"/><path class="cls-2" d="M340.37,196.89c-.76-25.68,16.08-44.86,40-45.6,25.46-.78,44.14,16.34,44.9,41.29.77,25.27-14.73,43.2-38.64,45.6C360.69,240.78,340,221.86,340.37,196.89Zm25.15-2.42a22.63,22.63,0,0,0,4.26,14,16.43,16.43,0,0,0,25.92.19c5.82-7.56,5.84-20.4.1-28a15.19,15.19,0,0,0-11.9-6.3C373.09,173.78,365.56,182,365.51,194.47Z"/><path class="cls-2" d="M331.61,177c0,15.49.08,31,0,46.48a12.91,12.91,0,0,1-16.29,12.73c-5-1.27-8.82-6.63-8.83-12.87q-.06-39.73,0-79.46c0-4.66-.06-9.33,0-14,.13-7.69,5-12.68,12.38-12.75,7.6-.08,12.69,4.93,12.74,12.89C331.68,145.69,331.61,161.35,331.61,177Z"/><path class="cls-1" d="M235.71,196.33c-.11-14.13,7.56-22.61,18.53-22a15.2,15.2,0,0,1,11.87,6.37c5.61,7.55,5.64,20.1,0,27.66a16.4,16.4,0,0,1-26.22,0A21.86,21.86,0,0,1,235.71,196.33Z"/><path class="cls-1" d="M365.51,194.47c0-12.43,7.58-20.69,18.38-20.12a15.19,15.19,0,0,1,11.9,6.3c5.74,7.64,5.72,20.48-.1,28a16.43,16.43,0,0,1-25.92-.19A22.63,22.63,0,0,1,365.51,194.47Z"/><rect class="cls-4" x="1" y="1" width="458.09" height="433.04" rx="65" ry="65"/></svg>